<?xml version="1.0" encoding="UTF-8"?>
<svg id="Layer_1" data-name="Layer 1" xmlns="http://www.w3.org/2000/svg" viewBox="0 0 1920 1080">
  <defs>
    <style>
      .cls-1 {
        letter-spacing: 0em;
      }

      .cls-2 {
        letter-spacing: 0em;
      }

      .cls-3 {
        fill: #4d4d4d;
        font-family: AcuminConcept-Light, 'Acumin Variable Concept';
        font-size: 123.77px;
        font-variation-settings: 'wght' 300, 'wdth' 100, 'slnt' 0;
        font-weight: 300;
      }

      .cls-4 {
        letter-spacing: .01em;
      }

      .cls-5 {
        letter-spacing: 0em;
      }

      .cls-6 {
        letter-spacing: -.01em;
      }

      .cls-7 {
        letter-spacing: 0em;
      }

      .cls-8 {
        letter-spacing: 0em;
      }

      .cls-9 {
        letter-spacing: .01em;
      }

      .cls-10 {
        letter-spacing: 0em;
      }

      .cls-11 {
        letter-spacing: -.02em;
      }

      .cls-12 {
        fill: #29abe2;
      }

      .cls-13 {
        letter-spacing: 0em;
      }
    </style>
  </defs>
  <g>
    <path d="m539.86,565.35c0-34.51-.07-69.02.03-103.53.05-18.46,2.83-23.01,16.53-28.82,39.97-16.96,80.63-21.04,122.13-10.8,24.15,5.96,46.52,35.46,51.22,68.67,1.36,9.59,1.96,19.46,2,29.21.19,49.85.12,99.7.07,149.55-.02,16.52-1.35,17.99-14.3,17.98-9.03,0-18.06.26-27.08.36-11.22.12-13.51-2.54-13.6-16.69-.12-20.88-.04-41.75-.05-62.63,0-26.84.12-53.68-.04-80.52-.17-29.31-11.67-45.41-34.98-46.89-11.35-.72-22.86,1.46-34.26,2.84-9.44,1.14-12.85,8.1-12.77,20.07.33,54.53.16,109.07.13,163.6,0,18.9-1.03,20.09-15.99,20.03-8.42-.03-16.83.11-25.25.13-12.24.04-13.77-1.77-13.8-17.74-.08-34.94-.03-69.87,0-104.81Z"/>
    <path d="m473.51,687.55c-5.96,0-11.95-.42-17.88.1-7.9.7-9.96-3.71-8.75-12.28,4.93-34.92-1.91-50.45-29.26-63.21-14.78-6.89-30.22-11.69-45.24-17.88-8.99-3.7-17.94-7.76-26.58-12.51-52.35-28.77-47.97-108.63-9.16-143.39,22.06-19.76,47.47-24.7,74.1-23.6,28.48,1.18,55.54,8.75,80.85,25.26,9.17,5.98,11.01,13.23,6.7,23.99-3.53,8.81-6.78,17.79-10.23,26.65-6.09,15.61-10.49,17.53-23.03,9.69-21.28-13.31-43.35-23.24-67.8-20.78-7.19.72-14.8,2.87-21.14,6.87-13.23,8.34-14.24,26.45-1.67,35.87,9.12,6.84,19.77,10.91,29.98,15.41,19.84,8.75,40.65,14.91,59.63,25.78,34.28,19.63,48.81,57.64,42.03,102.66-2.93,19.41-5.06,21.63-20.95,21.77-3.86.03-7.73,0-11.6,0v-.4Z"/>
    <path d="m540.04,303.58c4.89-10.42,14.52-17.17,25.11-17.56,11.29-.42,21.88,6.44,27.12,17.56v243.62h-52.52c.1-81.21.19-162.42.29-243.62Z"/>
    <path class="cls-12" d="m310.84,645.47c.52-23.43,13.92-36.84,36.19-36.21,20.56.58,32.93,15.8,32.26,39.71-.63,22.8-13.73,36.9-33.87,36.47-21.9-.47-35.12-15.75-34.58-39.97Z"/>
    <path d="m780.51,685.45c-.31-2.22-.82-4.11-.82-6.01.14-48.99-.21-97.99.72-146.95.63-33.41,9.19-64.08,31.46-87.66,22.04-23.33,48.96-30.05,78.72-28.74v62.18c-1.6.31-3,.87-4.36.79-33.69-1.76-49.16,24.52-49.58,57.16-.59,46-.25,92.02-.31,138.03,0,3.55,0,7.11,0,11.2h-55.83Z"/>
    <path d="m1115.7,580.59c-30.16,0-60.87.61-91.55-.56-5.46-.21-11.33-6.91-16.03-12.15-10.37-11.56-20.11-24.11-28.26-41.48h93.6c-5.66-25.32-17.27-38.71-31.83-47.53-22.59-13.68-52.24-5.14-68.71,18.39-17.55,25.07-21.02,64.16-8.34,94.01,12.69,29.89,38.1,49.18,62.75,38.36,21.46-9.41,32.65,1.75,44.29,20.37,1.87,2.99,3.91,5.78,5.86,8.65-29.73,38.65-86.55,39.07-122.3,1.39-42.32-44.6-53.01-121.14-25.04-179.17,28.37-58.85,84.36-80.95,130.71-51.61,43.67,27.64,68.96,95.85,54.84,151.34Z"/>
    <path d="m1343.71,582.63c-30.16,0-60.87.61-91.55-.56-5.46-.21-11.33-6.91-16.03-12.15-10.37-11.56-20.11-24.11-28.26-41.48h93.6c-5.66-25.32-17.27-38.71-31.83-47.53-22.59-13.68-52.24-5.14-68.71,18.39-17.55,25.07-21.02,64.16-8.34,94.01,12.69,29.89,38.1,49.18,62.75,38.36,21.46-9.41,32.65,1.75,44.29,20.37,1.87,2.99,3.91,5.78,5.86,8.65-29.73,38.65-86.55,39.07-122.3,1.39-42.32-44.6-53.01-121.14-25.04-179.17,28.37-58.85,84.36-80.95,130.71-51.61,43.67,27.64,68.96,95.85,54.84,151.34Z"/>
    <g>
      <path d="m1537.07,591.98c.67,33.31-.18,41.58.41,60.82.18,5.86-.06,11.72,0,17.59.12,12.15.38,14.22-1,16.33-2.77,4.21-7.7,1.77-21.12,1.14-16.26-.76-20.92,2.26-24.08-2.4-2.24-3.3-1.12-6.61-1-21.35.08-10.45-.45-12.19-.64-22.26-.42-21.7.21-69.26-.13-110.94-.16-19.31-5.98-34.58-16.98-45.37-9.26-9.08-19.15-8.83-28.92-3.55-6.91,3.74-11.87,11.85-15.78,21.24-3.66,8.78-4.91,18.23-4.89,28.42.1,42.26.66,99.21-.07,117.87-.27,6.96-.82,10.11-.89,19.61-.09,12.37.79,14.9-1,17.59-3.09,4.63-8.45,1.26-23.1,1.26-14.2,0-18.92,3.15-22.1-1.26-2.26-3.14-1.44-6.9-1-20.1.28-8.35-.22-16.71,0-25.07.74-29.21-.52-57.29.1-109.09.16-13.76,1.14-27.51,4.51-40.91,2.62-10.41,5.66-20.37,9.62-29.56,4.86-11.28,11.11-20.93,18.46-28.95,7.52-8.2,16.11-12.69,24.95-16.22,3.23-1.29,6.7-1.27,10.05-1.83,2.56-.43,5.11-1.1,7.68-1.2,9.4-.39,18.77.7,27.84,4.26,8.19,3.22,15.87,8.66,22.81,15.96,3.66,3.85,7.07,8.27,10.43,12.71,1.97,2.61,3.25.57,4.57-.95,2.12-2.44,3.98-5.38,6.15-7.71,6.6-7.07,13.54-12.92,21.29-17.23,10.31-5.73,20.87-7.08,31.56-6.9,10.92.19,21.8,2.71,31.89,9.19,8.06,5.18,15.26,12.58,21.48,22.12,6.17,9.47,11.38,19.86,15.22,31.68,3.14,9.64,5.21,19.77,6.73,30.32,2.53,17.59,1.43,35.29,1.12,52.86-.17,9.57-3.81,17.93-9.58,23.84-4.73,4.84-9.64,7.2-15.35,6.8-7.86-.55-13.53-6.41-17.87-15.59-3.51-7.42-4.77-15.74-4.39-24.82.28-6.75.04-13.55.06-20.33.05-20.88-9.82-41.9-22.57-48.63-9.48-5.01-19.23-4.35-28.36,4.58-7.63,7.46-11.63,18.27-14.8,30.09-1.61,6.02-1.27,11.05-1.31,13.54-.33,24.71-.47,37.07.04,62.4Z"/>
      <path class="cls-12" d="m1599.76,652.99c.24-21.21,13.26-33.38,25.11-34.06,19.39-1.12,30.29,14.63,30.14,34.38-.16,20.49-11.43,33.77-27.42,34.4-15.12.59-27.99-14.69-27.82-34.71Z"/>
    </g>
  </g>
  <text class="cls-3" transform="translate(501.77 816.15)"><tspan class="cls-5" x="0" y="0">S</tspan><tspan class="cls-2" x="74.26" y="0">o</tspan><tspan class="cls-6" x="141.71" y="0">f</tspan><tspan class="cls-9" x="172.78" y="0">t</tspan><tspan class="cls-11" x="211.52" y="0">w</tspan><tspan class="cls-7" x="302.49" y="0">a</tspan><tspan class="cls-10" x="366.48" y="0">r</tspan><tspan class="cls-13" x="407.2" y="0">e</tspan><tspan x="470.32" y="0"> </tspan><tspan class="cls-5" x="502.13" y="0">S</tspan><tspan x="576.39" y="0">ol</tspan><tspan class="cls-4" x="670.83" y="0">u</tspan><tspan class="cls-1" x="739.76" y="0">t</tspan><tspan x="776.89" y="0">io</tspan><tspan class="cls-8" x="871.33" y="0">n</tspan><tspan x="939.65" y="0">s</tspan></text>
</svg>