<?xml version="1.0" encoding="UTF-8"?>
<svg id="Layer_1" data-name="Layer 1" xmlns="http://www.w3.org/2000/svg" viewBox="0 0 1920 1080">
  <defs>
    <style>
      .cls-1 {
        fill: #fff;
        stroke-width: 5px;
      }

      .cls-1, .cls-2 {
        stroke: #231f20;
        stroke-miterlimit: 10;
      }

      .cls-2 {
        stroke-width: 2px;
      }

      .cls-3 {
        fill: #26a9e0;
      }

      .cls-4 {
        fill: #29abe2;
      }
    </style>
  </defs>
  <g>
    <path d="m847.3,601.45c0-27.42-.06-54.84.02-82.25.04-14.66,2.38-18.28,13.88-22.9,33.56-13.48,67.71-16.71,102.56-8.58,20.28,4.73,39.07,28.17,43.01,54.55,1.14,7.62,1.65,15.46,1.68,23.21.16,39.6.1,79.21.06,118.81-.01,13.12-1.13,14.29-12.01,14.28-7.58,0-15.16.2-22.74.28-9.43.1-11.35-2.02-11.42-13.26-.1-16.58-.04-33.17-.04-49.76,0-21.32.1-42.65-.03-63.97-.14-23.28-9.8-36.08-29.37-37.26-9.54-.57-19.2,1.16-28.77,2.26-7.92.9-10.79,6.44-10.73,15.95.28,43.32.14,86.65.11,129.98,0,15.02-.87,15.96-13.42,15.91-7.07-.03-14.14.09-21.2.11-10.28.03-11.56-1.4-11.59-14.09-.07-27.76-.02-55.51,0-83.27Z"/>
    <path d="m791.58,698.54c-5.01,0-10.04-.34-15.02.08-6.64.56-8.37-2.95-7.35-9.76,4.14-27.74-1.6-40.08-24.57-50.22-12.41-5.48-25.38-9.29-37.99-14.2-7.55-2.94-15.06-6.17-22.32-9.94-43.96-22.86-40.28-86.3-7.69-113.92,18.53-15.7,39.86-19.63,62.23-18.75,23.92.94,46.64,6.95,67.89,20.06,7.7,4.75,9.25,10.51,5.63,19.06-2.97,7-5.69,14.14-8.59,21.17-5.12,12.4-8.81,13.93-19.34,7.7-17.87-10.57-36.41-18.46-56.94-16.51-6.04.58-12.43,2.28-17.75,5.46-11.11,6.63-11.96,21.01-1.4,28.5,7.66,5.43,16.6,8.67,25.17,12.24,16.66,6.95,34.14,11.85,50.07,20.48,28.79,15.6,40.99,45.79,35.29,81.56-2.46,15.42-4.25,17.19-17.59,17.29-3.25.03-6.49,0-9.74,0v-.32Z"/>
    <path d="m847.45,393.49c4.11-8.28,12.19-13.64,21.09-13.95,9.48-.33,18.38,5.12,22.77,13.95v193.55h-44.1c.08-64.52.16-129.03.24-193.55Z"/>
    <path class="cls-4" d="m654.98,665.1c.44-18.61,11.69-29.27,30.39-28.76,17.27.46,27.65,12.55,27.09,31.55-.53,18.12-11.53,29.32-28.44,28.97-18.39-.38-29.49-12.51-29.04-31.76Z"/>
    <path d="m1049.39,696.87c-.26-1.76-.69-3.27-.69-4.77.12-38.92-.17-77.85.6-116.75.53-26.54,7.72-50.91,26.42-69.64,18.51-18.53,41.12-23.87,66.11-22.83v49.4c-1.34.24-2.52.69-3.66.63-28.29-1.4-41.28,19.48-41.63,45.41-.5,36.55-.21,73.1-.26,109.66,0,2.82,0,5.65,0,8.9h-46.89Z"/>
    <path d="m1330.87,613.56c-25.33,0-51.12.48-76.88-.45-4.59-.17-9.51-5.49-13.46-9.66-8.71-9.19-16.89-19.15-23.73-32.95h78.6c-4.75-20.12-14.5-30.75-26.73-37.76-18.97-10.87-43.87-4.08-57.7,14.61-14.74,19.92-17.65,50.97-7.01,74.69,10.66,23.75,32,39.07,52.69,30.48,18.02-7.48,27.42,1.39,37.19,16.19,1.57,2.37,3.29,4.59,4.92,6.87-24.96,30.7-72.68,31.04-102.7,1.1-35.54-35.43-44.52-96.24-21.02-142.35,23.82-46.75,70.84-64.31,109.77-41,36.67,21.96,57.91,76.15,46.06,120.23Z"/>
    <path d="m1522.35,615.18c-25.33,0-51.12.48-76.88-.45-4.59-.17-9.51-5.49-13.46-9.66-8.71-9.19-16.89-19.15-23.73-32.95h78.6c-4.75-20.12-14.5-30.75-26.73-37.76-18.97-10.87-43.87-4.08-57.7,14.61-14.74,19.92-17.65,50.97-7.01,74.69,10.66,23.75,32,39.07,52.69,30.48,18.02-7.48,27.42,1.39,37.19,16.19,1.57,2.37,3.29,4.59,4.92,6.87-24.96,30.7-72.68,31.04-102.7,1.1-35.54-35.43-44.52-96.24-21.02-142.35,23.82-46.75,70.84-64.31,109.77-41,36.67,21.96,57.91,76.15,46.06,120.23Z"/>
    <g>
      <path d="m1684.72,622.61c.56,26.46-.15,33.04.34,48.32.15,4.65-.05,9.31,0,13.97.1,9.65.32,11.3-.84,12.97-2.33,3.34-6.46,1.41-17.74.91-13.65-.6-17.57,1.8-20.22-1.91-1.88-2.62-.94-5.25-.84-16.97.07-8.3-.38-9.68-.54-17.69-.35-17.24.18-55.03-.11-88.14-.13-15.34-5.02-27.47-14.26-36.05-7.77-7.22-16.09-7.02-24.28-2.82-5.8,2.97-9.97,9.41-13.25,16.87-3.07,6.97-4.12,14.49-4.1,22.58.08,33.57.55,78.82-.06,93.64-.23,5.53-.69,8.04-.75,15.58-.08,9.83.66,11.84-.84,13.97-2.59,3.68-7.1,1-19.4,1-11.92,0-15.88,2.51-18.56-1-1.9-2.49-1.21-5.48-.84-15.97.23-6.63-.18-13.28,0-19.91.62-23.21-.44-45.51.08-86.66.14-10.94.96-21.85,3.79-32.5,2.2-8.27,4.75-16.18,8.08-23.48,4.08-8.96,9.33-16.63,15.5-23,6.32-6.52,13.53-10.08,20.95-12.89,2.71-1.02,5.62-1.01,8.44-1.46,2.15-.34,4.29-.87,6.45-.96,7.89-.31,15.76.55,23.38,3.38,6.88,2.55,13.32,6.88,19.16,12.68,3.08,3.06,5.94,6.57,8.75,10.09,1.65,2.07,2.73.45,3.84-.75,1.78-1.94,3.34-4.28,5.17-6.12,5.54-5.62,11.37-10.27,17.88-13.69,8.66-4.55,17.53-5.63,26.5-5.48,9.17.15,18.31,2.15,26.78,7.3,6.77,4.11,12.82,10,18.04,17.57,5.18,7.52,9.55,15.78,12.79,25.17,2.63,7.66,4.38,15.71,5.65,24.09,2.12,13.98,1.2,28.03.94,42-.14,7.6-3.2,14.24-8.05,18.94-3.97,3.85-8.1,5.72-12.89,5.4-6.6-.44-11.36-5.1-15.01-12.38-2.95-5.89-4-12.51-3.69-19.72.23-5.37.03-10.77.05-16.15.05-16.59-8.25-33.29-18.95-38.63-7.96-3.98-16.15-3.46-23.82,3.64-6.41,5.93-9.77,14.52-12.43,23.9-1.35,4.78-1.07,8.78-1.1,10.76-.27,19.63-.39,29.45.03,49.58Z"/>
      <path class="cls-4" d="m1737.36,671.08c.2-16.85,11.13-26.52,21.08-27.06,16.29-.89,25.43,11.62,25.31,27.31-.13,16.28-9.6,26.83-23.03,27.33-12.7.47-23.5-11.67-23.36-27.58Z"/>
    </g>
  </g>
  <g>
    <path d="m233.21,768.5c-7.69-1.67-15.89-2.8-23.58-5.32-6.94-2.27-11.72-7.73-15.77-13.57-11.04-15.94-16.85-33.88-21.7-52.16-3.18-11.97-6.3-23.98-8.83-36.09-1.49-7.11-1.96-14.44-2.57-21.69-.97-11.53-1.76-23.07-2.47-34.61-.61-9.94-1.56-19.91-1.34-29.84.3-13.16,1.02-26.35,2.6-39.42,1.9-15.6,3.99-31.27,7.66-46.55,4.73-19.65,9.99-39.31,19.11-57.68,4.7-9.47,10.25-18.79,20.12-23.97,5.95-3.13,13.06-5.09,19.84-5.76,14.39-1.43,28.4,1.85,42.5,4.53,21.62,4.11,42.25,11.05,62.56,18.8,14.46,5.52,28.52,12.14,42.33,19.05,22.6,11.31,43.93,24.65,64.42,39.18,20.65,14.64,39.43,31.39,56.61,49.58,9.02,9.55,16.91,20.32,23.82,31.39,4.16,6.67,7.19,14.71,5.76,23.03-1.65,9.59-5.48,18.38-11.18,26.54-13.62,19.5-31.38,35.41-49.03,51.29-10.16,9.14-21.96,16.62-33.08,24.77-17.64,12.94-36.58,23.85-56.18,33.9-16.88,8.65-34.01,16.67-52.05,22.72-16.44,5.52-32.92,11.07-49.74,15.31-12.73,3.21-26.01,4.36-39.82,6.55Z"/>
    <path class="cls-1" d="m388.25,670.7c-5.5,0-11.03-.29-16.5.07-7.3.49-9.19-2.58-8.08-8.55,4.55-24.3-1.76-35.1-27-43.98-13.64-4.8-27.89-8.14-41.75-12.44-8.3-2.58-16.55-5.4-24.53-8.71-48.31-20.02-44.27-75.57-8.45-99.76,20.36-13.75,43.8-17.19,68.39-16.42,26.29.82,51.26,6.09,74.61,17.57,8.46,4.16,10.16,9.21,6.18,16.69-3.26,6.13-6.25,12.38-9.44,18.54-5.62,10.86-9.68,12.2-21.26,6.74-19.64-9.26-40.01-16.17-62.57-14.46-6.64.5-13.66,2-19.51,4.78-12.21,5.8-13.14,18.4-1.54,24.96,8.42,4.76,18.24,7.59,27.66,10.72,18.31,6.09,37.52,10.37,55.03,17.94,31.63,13.66,45.05,40.1,38.79,71.42-2.7,13.5-4.67,15.05-19.33,15.14-3.57.02-7.13,0-10.7,0v-.28Z"/>
    <path class="cls-3" d="m255.89,654.9c.45-17.27,12-27.15,31.19-26.68,17.72.43,28.38,11.65,27.81,29.27-.54,16.81-11.83,27.2-29.19,26.87-18.88-.35-30.26-11.6-29.8-29.46Z"/>
  </g>
  <line class="cls-2" x1="571.76" y1="286.18" x2="572" y2="800"/>
</svg>